<svg class="logo-animatable" version="1.1" xmlns="http://www.w3.org/2000/svg" xmlns:xlink="http://www.w3.org/1999/xlink" x="0px" y="0px" width="240px"
	 height="320px" viewBox="0 0 240 320" enable-background="new 0 0 240 320" xml:space="preserve">
<g class="logo-wrapper">
	<g class="segment-one">
		<g class="right" fill="#E23600">
			<polygon class="right-top-tri" points="160,80 240,80 160,0 			"/>
			<rect class="right-quad" x="160" y="80" width="80" height="160"/>
			<polygon class="right-bottom-tri" points="160,320 240,240 160,240 			"/>
			<linearGradient id="right-gradient" gradientUnits="userSpaceOnUse" x1="200" y1="86" x2="200" y2="80">
				<stop  offset="0" style="stop-color:#000000;stop-opacity:0"/>
				<stop  offset="1" style="stop-color:#000000;stop-opacity:0.15"/>
			</linearGradient>
			<rect class="right-gradient" x="160" y="80" fill="url(#right-gradient)" width="80" height="6"/>
		</g>
		<g class="segment-two">
			<g class="left" fill="#E23600">
				<rect class="left-quad" y="160" width="80" height="80"/>
				<polygon class="left-tri" points="80,320 80,240 0,240 				"/>
			</g>
			<g class="bottom" fill="#FE3D00">
				<polygon class="bottom-right-tri" points="160,240 160,320 240,240 				"/>
				<rect class="bottom-quad" x="80" y="240" width="80" height="80"/>
				<polygon class="bottom-left-tri" points="0,240 80,320 80,240 				"/>
			</g>
		</g>
	</g>
	<path class="heart-left" fill="#FE3D00" d="M0,0c22,0,40,17.908,40,40c0,22.091-18,40-40,40V0z"/>
	<path class="heart-right" fill="#FE3D00" d="M0,0c0,22,17.909,40,40,40c22.092,0,40-18,40-40H0z"/>
	<g class="top" fill="#FE3D00">
		<rect class="top-quad" width="160" height="80"/>
		<polygon class="top-tri" points="160,80 240,80 160,0 		"/>
	</g>
</g>
</svg>

